# xmcd
#
# Track frame offsets:
#	150
#	39600
#	74262
#	107520
#
# Disc length: 2083 seconds
#
# Revision: 1
# Processed by: cddbd v1.5.2PL0 Copyright (c) Steve Scherf et al.
# Submitted via: audiograbber 1.83.01
#
DISCID=2e082104
DTITLE=Art Farmer and Jim Hall - Big Blues
DYEAR=1979
DGENRE=Jazz
TTITLE0=Whisper Not
TTITLE1=A Child Is Born
TTITLE2=Big Blues
TTITLE3=Pavane For A Dead Princess
EXTD=CTI 7083 was recorded in February, 1978
EXTT0=
EXTT1=
EXTT2=
EXTT3=
PLAYORDER=
